Coordinates
version=1
nRows=19
nColumns=24
inDegrees=yes

Units are S.I. units (second, meters, Newtons, ...)
If the header above contains a line with 'inDegrees', this indicates whether rotational values are in degrees (yes) or radians (no).

endheader
time	pelvis_tilt	pelvis_list	pelvis_rotation	pelvis_tx	pelvis_ty	pelvis_tz	hip_flexion_r	hip_adduction_r	hip_rotation_r	knee_angle_r	ankle_angle_r	subtalar_angle_r	mtp_angle_r	hip_flexion_l	hip_adduction_l	hip_rotation_l	knee_angle_l	ankle_angle_l	subtalar_angle_l	mtp_angle_l	lumbar_extension	lumbar_bending	lumbar_rotation
      1.50000000	      1.93172401	      1.67826970	     -1.77502487	      0.60674213	      1.02954743	     -0.00046244	      9.16276904	     -8.30872931	     -4.86084468	    -68.05610756	     -3.61989904	     -0.00000287	      0.00000000	     11.31233471	      3.76844853	     -2.37456826	    -16.29224787	      1.57347618	     -0.00000151	      0.00000000	    -15.55375492	     -4.44578873	     -4.38391258
      1.51700000	      1.90790055	      1.31838999	     -1.14242387	      0.60531645	      1.03214252	     -0.00295033	     11.49367593	     -7.90271303	     -5.14114172	    -69.08009458	     -1.80108389	     -0.00000303	      0.00000000	      9.67738493	      3.66076094	     -1.56542530	    -15.20581300	      2.03140611	     -0.00000137	      0.00000000	    -15.56080427	     -3.74259076	     -5.17853154
      1.53300000	      1.90827712	      1.00122973	     -0.60157859	      0.60401194	      1.03444199	     -0.00532517	     13.66405216	     -7.42505893	     -5.23092233	    -69.28908221	     -0.42219278	     -0.00000292	      0.00000000	      7.93157270	      3.55125109	     -0.87535677	    -13.94876412	      2.41478931	     -0.00000125	      0.00000000	    -15.60412167	     -3.12502953	     -6.10880008
      1.55000000	      1.70125392	      0.90100706	     -0.21530161	      0.60156841	      1.03553580	     -0.00727205	     16.12951935	     -7.11957313	     -5.12581029	    -68.98890846	      0.59049180	     -0.00000229	      0.00000000	      6.62608306	      3.60197333	     -0.43512613	    -12.98692549	      2.84993745	     -0.00000106	      0.00000000	    -15.53620250	     -2.82620492	     -6.59780954
      1.56700000	      1.66109211	      0.48075296	      0.55008095	      0.60009476	      1.03691197	     -0.00933638	     17.90023250	     -6.55380195	     -5.55000570	    -67.56210328	      1.21055450	     -0.00000180	      0.00000000	      5.03632142	      3.30241731	      0.44753542	    -11.91005393	      3.31221757	     -0.00000095	      0.00000000	    -15.54937925	     -2.10449810	     -7.40161977
      1.58300000	      1.56865902	      0.26618414	      0.98254667	      0.59802248	      1.03750696	     -0.01086830	     19.71605630	     -6.16932514	     -5.65351268	    -65.57450900	      1.63482077	     -0.00000109	      0.00000000	      3.63022987	      3.15221780	      0.97195569	    -11.02408486	      3.84047989	     -0.00000071	      0.00000000	    -15.55771155	     -1.67827659	     -7.93809064
      1.60000000	      1.52930273	      0.08220650	      1.22873483	      0.59680277	      1.03788979	     -0.01212654	     21.18748261	     -5.78798939	     -5.63178553	    -62.79559036	      1.92892733	     -0.00000083	      0.00000000	      1.95021947	      2.99429317	      1.35265945	     -9.79109273	      4.25788416	     -0.00000056	      0.00000000	    -15.57778595	     -1.28049827	     -8.14191711
      1.61700000	      1.40282990	      0.12499742	      1.59214569	      0.59385231	      1.03745864	     -0.01345422	     22.62260681	     -5.81082938	     -5.85238185	    -59.43761846	      2.18505970	     -0.00000083	      0.00000000	      0.61554880	      3.06586495	      1.89104609	     -8.83882838	      4.65453210	     -0.00000050	      0.00000000	    -15.74376945	     -1.17892038	     -8.39520917
      1.63300000	      1.02271937	      0.11203422	      1.72198352	      0.59173239	      1.03598922	     -0.01441067	     24.03430771	     -5.81253063	     -6.14220521	    -55.39647301	      2.40716954	     -0.00000131	      0.00000000	     -0.40771374	      3.07666248	      2.13656487	     -8.10811724	      5.28569092	     -0.00000038	      0.00000000	    -15.38649093	     -1.02098236	     -8.52288656
      1.65000000	      0.86207551	      0.44155049	      1.67821707	      0.58935597	      1.03438465	     -0.01537794	     24.96584418	     -6.18642327	     -6.42487724	    -50.71416130	      2.57197012	     -0.00000229	      0.00000000	     -1.76630978	      3.45586962	      2.14175958	     -7.15612876	      5.75387149	     -0.00000022	      0.00000000	    -15.35281137	     -1.19855836	     -8.61157143
      1.66700000	      0.84585027	      0.60158564	      1.76212533	      0.58782970	      1.03281345	     -0.01590706	     25.23532707	     -6.45369457	     -7.31244875	    -45.19340640	      2.51668153	     -0.00000337	      0.00000000	     -3.36800302	      3.59074190	      2.26871083	     -6.11748355	      6.23681425	     -0.00000006	      0.00000000	    -15.50534484	     -1.23675407	     -8.61138667
      1.68300000	      0.63475036	      1.05613265	      1.70205541	      0.58589600	      1.03005383	     -0.01658299	     25.64981707	     -6.92439588	     -8.03539014	    -39.42135411	      2.31006282	     -0.00000418	      0.00000000	     -4.53312083	      4.07446454	      2.29499721	     -5.55625393	      6.95822712	      0.00000022	      0.00000000	    -15.45977206	     -1.58076020	     -8.68932236
      1.70000000	      0.32457307	      1.43620829	      1.68990174	      0.58486224	      1.02691170	     -0.01678889	     25.76410252	     -7.16095034	     -8.81161939	    -33.06265648	      1.98879989	     -0.00000457	      0.00000000	     -5.74043725	      4.43468949	      2.39567750	     -4.81204333	      7.63927568	      0.00000041	      0.00000000	    -15.16927773	     -1.86266259	     -8.79598733
      1.71700000	      0.44403743	      1.98078546	      1.68012626	      0.58351389	      1.02426291	     -0.01679079	     25.22303589	     -7.36268274	     -9.12907913	    -26.39755641	      1.56371704	     -0.00000430	      0.00000000	     -7.34832420	      4.96092657	      2.55766414	     -4.16829620	      8.28596037	      0.00000039	      0.00000000	    -15.49508561	     -2.35713347	     -8.83719724
      1.73300000	      0.28521736	      2.54826207	      1.66090007	      0.58238762	      1.02062133	     -0.01684364	     24.85905433	     -7.46865644	     -8.79519135	    -19.72916235	      1.18535804	     -0.00000374	      0.00000000	     -8.71233494	      5.54195895	      2.74507225	     -3.46846635	      8.95152071	      0.00000019	      0.00000000	    -15.47313942	     -2.82650811	     -8.78876469
      1.75000000	      0.15233890	      3.15930412	      1.67117003	      0.58200250	      1.01677642	     -0.01665258	     24.32997112	     -7.60268144	     -7.82896688	    -13.28013816	      0.91627827	     -0.00000305	      0.00000000	    -10.10246750	      6.13415400	      3.03334385	     -2.87971012	      9.62414557	      0.00000005	      0.00000000	    -15.32235002	     -3.30825970	     -9.13995481
      1.76700000	      0.12619983	      3.73028608	      1.76395645	      0.58199652	      1.01288970	     -0.01619286	     23.68016176	     -7.78952512	     -6.47567859	     -7.54792870	      0.84003499	     -0.00000234	      0.00000000	    -11.57934416	      6.60502014	      3.46657936	     -2.39852248	     10.28218533	      0.00000011	      0.00000000	    -15.32198370	     -3.75478819	     -9.40399685
      1.78300000	      0.11062104	      4.18072855	      2.05366906	      0.58246938	      1.00901913	     -0.01595471	     23.07958938	     -8.05413872	     -5.16354232	     -2.94556842	      1.07144199	     -0.00000193	      0.00000000	    -13.11734752	      6.86668558	      4.16590500	     -1.87932419	     10.83277710	      0.00000007	      0.00000000	    -15.22468525	     -3.97997180	     -9.92848068
      1.80000000	      0.04586858	      4.56092034	      2.25976425	      0.58279211	      1.00533757	     -0.01540942	     22.80449727	     -8.29090540	     -3.86562789	      0.17932733	      1.38013933	     -0.00000157	      0.00000000	    -14.29817592	      7.04591965	      4.79490655	     -1.94867193	     11.52411184	      0.00000028	      0.00000000	    -15.09912688	     -4.16472225	    -10.25030226
